<?xml version="1.0" encoding="UTF-8" standalone="no"?>
<!-- Generator: Adobe Illustrator 19.0.0, SVG Export Plug-In . SVG Version: 6.00 Build 0)  -->

<svg
   xmlns:dc="http://purl.org/dc/elements/1.1/"
   xmlns:cc="http://creativecommons.org/ns#"
   xmlns:rdf="http://www.w3.org/1999/02/22-rdf-syntax-ns#"
   xmlns:svg="http://www.w3.org/2000/svg"
   xmlns="http://www.w3.org/2000/svg"
   xmlns:sodipodi="http://sodipodi.sourceforge.net/DTD/sodipodi-0.dtd"
   xmlns:inkscape="http://www.inkscape.org/namespaces/inkscape"
   version="1.1"
   id="Capa_1"
   x="0px"
   y="0px"
   viewBox="0 0 512 512"
   style="enable-background:new 0 0 512 512;"
   xml:space="preserve"
   sodipodi:docname="mouse1.svg"
   inkscape:version="0.92.3 (2405546, 2018-03-11)"><metadata
   id="metadata1476"><rdf:RDF><cc:Work
       rdf:about=""><dc:format>image/svg+xml</dc:format><dc:type
         rdf:resource="http://purl.org/dc/dcmitype/StillImage" /><dc:title></dc:title></cc:Work></rdf:RDF></metadata><defs
   id="defs1474" /><sodipodi:namedview
   pagecolor="#ffffff"
   bordercolor="#666666"
   borderopacity="1"
   objecttolerance="10"
   gridtolerance="10"
   guidetolerance="10"
   inkscape:pageopacity="0"
   inkscape:pageshadow="2"
   inkscape:window-width="1920"
   inkscape:window-height="1017"
   id="namedview1472"
   showgrid="false"
   inkscape:zoom="1.1739077"
   inkscape:cx="309.0975"
   inkscape:cy="272.56371"
   inkscape:window-x="-8"
   inkscape:window-y="-8"
   inkscape:window-maximized="1"
   inkscape:current-layer="Capa_1" />
<g
   id="g1433"
   transform="matrix(0.8227998,0,0,0.7936912,77.30784,0)">
	<g
   id="g1431">
		<path
   d="M 256,0 C 156.595,0 75.726,82.14 75.726,183.099 V 328.906 C 75.726,429.865 156.595,512 256,512 355.399,512 436.274,430.114 436.274,329.466 V 183.099 C 436.274,82.14 355.399,0 256,0 Z m 146.366,329.466 c 0,81.954 -65.656,148.627 -146.366,148.627 -80.705,0 -146.366,-66.927 -146.366,-149.192 V 183.099 c 0,-82.265 65.661,-149.192 146.366,-149.192 80.711,0 146.366,66.927 146.366,149.192 z"
   id="path1429"
   inkscape:connector-curvature="0" />
	</g>
</g>
<g
   id="g1439"
   transform="translate(26.407526,-54.518765)">
	<g
   id="g1437">
		<path
   d="m 256,140.15 c -9.364,0 -16.954,7.59 -16.954,16.954 v 59.338 c 0,9.364 7.59,16.954 16.954,16.954 9.364,0 16.954,-7.59 16.954,-16.954 v -59.338 c 0,-9.364 -7.59,-16.954 -16.954,-16.954 z"
   id="path1435"
   inkscape:connector-curvature="0" />
	</g>
</g>
<g
   id="g1441">
</g>
<g
   id="g1443">
</g>
<g
   id="g1445">
</g>
<g
   id="g1447">
</g>
<g
   id="g1449">
</g>
<g
   id="g1451">
</g>
<g
   id="g1453">
</g>
<g
   id="g1455">
</g>
<g
   id="g1457">
</g>
<g
   id="g1459">
</g>
<g
   id="g1461">
</g>
<g
   id="g1463">
</g>
<g
   id="g1465">
</g>
<g
   id="g1467">
</g>
<g
   id="g1469">
</g>
<g
   id="g1480"
   transform="matrix(2.0786904,0,0,1.8093314,148.43127,331.07348)"><path
     id="path1478"
     d="m 121.3,34.6 c -1.6,-1.6 -4.2,-1.6 -5.8,0 L 64.5,85.7 13.4,34.6 C 11.8,33 9.2,33 7.6,34.6 6,36.2 6,38.8 7.6,40.4 l 53.9,53.9 c 0.8,0.8 1.8,1.2 2.9,1.2 1,0 2.1,-0.4 2.9,-1.2 l 53.9,-53.9 c 1.7,-1.6 1.7,-4.2 0.1,-5.8 z"
     inkscape:connector-curvature="0" /></g></svg>